<svg width="2048" height="804" viewBox="0 0 2048 804" xmlns="http://www.w3.org/2000/svg">
  <defs>
    <linearGradient id="grad1" gradientUnits="userSpaceOnUse" x1="1914.12" y1="818.703" x2="1802.11" y2="40.8326">
      <stop offset="0" stop-color="rgb(81,118,151)"/>
      <stop offset="1" stop-color="rgb(92,178,214)"/>
    </linearGradient>
    <linearGradient id="grad2" gradientUnits="userSpaceOnUse" x1="2150.44" y1="344.431" x2="1912.02" y2="599.672">
      <stop offset="0" stop-color="rgb(18,57,104)"/>
      <stop offset="1" stop-color="rgb(65,97,133)"/>
    </linearGradient>
    <linearGradient id="grad3" gradientUnits="userSpaceOnUse" x1="908.076" y1="220.143" x2="464.09" y2="-207.039">
      <stop offset="0" stop-color="rgb(18,58,107)"/>
      <stop offset="1" stop-color="rgb(72,104,141)"/>
    </linearGradient>
    <linearGradient id="grad4" gradientUnits="userSpaceOnUse" x1="831.494" y1="920.575" x2="553.781" y2="652.233">
      <stop offset="0" stop-color="rgb(82,118,151)"/>
      <stop offset="1" stop-color="rgb(90,171,206)"/>
    </linearGradient>
    <linearGradient id="grad5" gradientUnits="userSpaceOnUse" x1="151.616" y1="590" x2="-101.354" y2="344.552">
      <stop offset="0" stop-color="rgb(16,57,107)"/>
      <stop offset="1" stop-color="rgb(72,103,139)"/>
    </linearGradient>
    <linearGradient id="grad6" gradientUnits="userSpaceOnUse" x1="184.354" y1="306.057" x2="-34.4207" y2="94.7415">
      <stop offset="0" stop-color="rgb(181,197,212)"/>
      <stop offset="1" stop-color="rgb(197,226,236)"/>
    </linearGradient>
  </defs>

  <path d="M 0 0 L 255.402 0 L 1124.46 0 L 1239.23 0 L 1934.54 0 L 2048 0 L 2048 4.14872 L 2048 243.08 L 2048 708.194 L 2048 804 L 1922.53 804 L 1847.57 804 L 1632.35 804 L 1344.14 804 L 949.66 804 L 404.781 804 L 319.716 804 L 19.0381 804 L 0 804 L 0 695.264 L 0 236.058 L 0 54.7941 L 0 0 Z" fill="rgb(255,255,255)"/>

  <path d="M 2048 4.14872 L 2048 243.08 L 2048 708.194 L 2048 804 L 1922.53 804 L 1719.01 601.385 L 1666.76 549.406 C 1643.41 526.18 1621.94 508.466 1616.44 474.392 C 1610.48 437.447 1620.27 405.906 1646.95 380.118 C 1660.68 366.841 1674.19 352.655 1687.69 339.287 L 1791.5 236.213 L 1934.03 94.4242 L 1979.87 48.7576 C 2002.23 26.5064 2015.15 9.93968 2048 4.14872 Z" fill="url(#grad1)"/>

  <path d="M 2048 243.08 L 2048 708.194 C 2015.46 705.64 2006.11 689.96 1984.32 668.179 L 1921.59 605.238 L 1860.03 543.6 C 1848.86 532.417 1836.19 520.514 1826.15 508.266 C 1812.66 491.817 1812.86 459.841 1825.86 443.261 C 1834.99 431.623 1847.82 419.791 1858.45 409.227 L 1915.61 352.614 L 1979.04 289.458 C 2002.56 266.063 2013.92 247.784 2048 243.08 Z" fill="url(#grad2)"/>

  <path d="M 255.402 0 L 1124.46 0 L 800.436 324.572 C 767.097 357.785 741.155 383.384 689.487 383.156 C 664.606 383.061 640.338 375.426 619.885 361.258 C 605.638 351.465 588.809 333.691 576.193 321.114 L 514.115 258.907 L 255.402 0 Z" fill="url(#grad3)"/>

  <path d="M 209.531 322 C 229.308 301.836 249.228 281.812 269.287 261.929 C 292.046 239.201 312.319 212.526 347.841 212.866 C 374.495 213.121 387.207 220.015 405.873 238.392 L 539.028 371.629 L 578.031 410.389 C 599.547 431.748 614.398 444.676 614.661 477.939 C 614.949 514.4 592.675 531.408 569.054 555.003 L 432.766 691.192 C 424.054 699.854 393.559 732.543 384.859 738.147 C 382.04 738.817 377.276 741.416 374.393 742.72 C 361.947 748.35 351.695 751.376 337.897 750.182 C 326.403 749.176 315.338 745.333 305.693 738.999 C 293.648 731.017 256.798 692.974 245.259 681.052 C 231.427 666.76 206.23 643.064 193.946 628.507 L 271.631 550.979 C 294.981 527.725 327.283 504.205 326.209 468.542 C 325.453 443.448 315.905 427.593 298.092 410.898 C 270.374 382.064 235.481 351.483 209.531 322 Z" fill="rgb(189,208,220)"/>

  <path d="M 1239.23 0 L 1934.54 0 L 1564.39 370.178 C 1551.53 299.853 1519.54 234.432 1471.93 181.101 C 1403.12 102.583 1308.54 52.307 1203.83 45.4714 C 1215.31 24.6648 1222.94 16.4507 1239.23 0 Z" fill="rgb(189,208,220)"/>

  <path d="M 404.781 804 C 465.541 744.692 526.232 682.718 586.629 622.76 L 635.159 574.666 C 643.874 566.191 656.196 553.267 666.085 547.082 C 688.971 532.77 721.249 532.988 743.256 548.973 C 754.63 557.235 763.213 566.367 772.981 576.074 L 810.493 613.484 C 849.998 652.908 889.301 692.533 928.907 731.855 C 947.258 750.074 957.092 778.684 949.66 804 L 404.781 804 Z" fill="url(#grad4)"/>

  <path d="M 0 236.058 C 39.735 226.864 53.6539 244.914 79.6753 270.892 L 127.865 319.039 C 133.928 325.068 145.286 337.003 151.537 342.295 L 205.827 396.516 C 225.077 415.766 251.751 436.435 251.159 465.601 C 250.948 475.999 249.446 487.381 243.788 496.678 C 232.679 512.343 213.408 530.058 199.74 543.712 L 127.582 615.648 L 79.9754 662.916 C 54.7338 687.913 39.2557 707.791 0 695.264 L 0 236.058 Z" fill="url(#grad5)"/>

  <path d="M 1561.92 533.19 C 1594 567.054 1628.47 599.168 1660.69 632.932 C 1689.92 663.572 1715.96 676.515 1716.92 722.481 C 1706.25 728.904 1689.14 747.287 1679.77 756.66 L 1632.35 804 L 1344.14 804 C 1361.2 794.968 1376.29 786.7 1392.47 776.109 C 1476.75 720.923 1541.56 632.617 1561.92 533.19 Z" fill="rgb(189,208,220)"/>

  <path d="M 0 54.7941 C 27.2328 54.189 36.7425 58.6387 56.2074 77.8942 C 99.3773 120.65 141.989 163.535 185.132 206.361 C 200.644 221.758 212.029 231.96 212.935 255.972 C 214.242 290.623 181.634 309.395 160.876 332.095 C 157.582 335.697 154.592 338.305 151.537 342.295 C 145.286 337.003 133.928 325.068 127.865 319.039 L 79.6753 270.892 C 53.6539 244.914 39.735 226.864 0 236.058 L 0 54.7941 Z" fill="url(#grad6)"/>

  <path d="M 19.0381 804 C 36.1785 785.686 56.3724 766.543 74.2284 748.586 L 193.946 628.507 C 206.23 643.064 231.427 666.76 245.259 681.052 C 256.798 692.974 293.648 731.017 305.693 738.999 C 315.338 745.333 326.403 749.176 337.897 750.182 C 351.695 751.376 361.947 748.35 374.393 742.72 C 377.276 741.416 382.04 738.817 384.859 738.147 C 365.566 759.458 340.55 783.59 319.716 804 L 19.0381 804 Z" fill="rgb(206,224,230)"/>

  <path d="M 1716.92 722.481 C 1730.66 716.893 1744.65 714.718 1758.74 720.63 C 1776.43 728.056 1829.87 787.006 1847.57 804 L 1632.35 804 L 1679.77 756.66 C 1689.14 747.287 1706.25 728.904 1716.92 722.481 Z" fill="rgb(26,61,103)"/>

  <path d="M 1370.99 440.222 C 1374.98 439.728 1378.74 439.238 1382.68 440.387 C 1387.82 441.909 1392.15 445.413 1394.71 450.129 C 1401.93 463.328 1395.77 476.7 1383.22 483.487 C 1355.78 488.06 1347.58 452.579 1370.99 440.222 Z" fill="rgb(255,255,255)"/>
  <path d="M 1126.17 438.163 C 1135.43 438.006 1139.16 440.612 1145.44 448.073 C 1146.91 449.828 1146.52 451.358 1145.97 453.354 C 1142.16 456.467 1138.42 455.309 1132.41 455.319 C 1127.59 455.409 1114.63 456.473 1111.71 453.748 C 1110.32 447.105 1120.66 440.329 1126.17 438.163 Z" fill="rgb(255,255,255)"/>
  <path d="M 897.392 438.186 C 910.689 437.706 914.048 443.994 917.772 455.204 L 902.911 455.394 L 881.644 455.258 C 885.434 444.127 886.248 442.232 897.392 438.186 Z" fill="rgb(255,255,255)"/>
  <path d="M 1356.04 532.65 C 1357.98 531.567 1360.36 531.63 1362.24 532.816 C 1364.12 534.001 1365.2 536.12 1365.05 538.337 C 1364.91 540.555 1363.57 542.517 1361.55 543.451 C 1358.59 544.823 1355.08 543.61 1353.6 540.705 C 1352.11 537.799 1353.19 534.241 1356.04 532.65 Z" fill="rgb(255,255,255)"/>
  <path d="M 1203.92 531.784 C 1207.22 531.402 1210.22 533.747 1210.64 537.045 C 1211.07 540.343 1208.76 543.369 1205.47 543.834 C 1203.3 544.139 1201.14 543.256 1199.8 541.521 C 1198.47 539.786 1198.17 537.468 1199.02 535.452 C 1199.88 533.436 1201.75 532.035 1203.92 531.784 Z" fill="rgb(255,255,255)"/>
  <path d="M 1474.54 532.729 C 1477.38 531.173 1480.95 532.176 1482.56 534.986 C 1484.17 537.796 1483.24 541.379 1480.46 543.048 C 1478.62 544.157 1476.32 544.182 1474.45 543.112 C 1472.58 542.043 1471.43 540.046 1471.45 537.892 C 1471.47 535.738 1472.65 533.763 1474.54 532.729 Z" fill="rgb(255,255,255)"/>
</svg>

