<svg xmlns="http://www.w3.org/2000/svg"
     viewBox="0 0 1200 1200"
     width="1200"
     height="1200">

  <!-- Path 1 -->
  <path fill="rgb(19,53,84)"
        d="M937.046 303.825
           C941.687 306.72 952.428 325.012 955.456 330.304
           C984.37 380.176 1001.52 435.989 1005.61 493.492
           C1013.53 601.184 984.194 703.692 913.072 786.091
           C845.379 865.385 748.913 914.482 644.967 922.546
           C537.837 931.102 431.764 896.237 350.6 825.793
           C321.894 800.735 307.655 783.201 285.165 752.852
           C351.217 773.73 430.794 771.877 497.855 758.063
           C599.633 807.303 724.571 788.026 800.136 701.59
           C839.665 656.121 862.17 598.332 863.803 538.106
           C864.222 520.794 862.136 504.908 860.962 487.765
           C869.637 471.663 885.71 442.244 891.222 425.146
           C915.915 436.269 940.851 446.572 965.405 458.01
           C960.306 423.885 956.101 394.822 948.402 360.611
           C945.33 346.959 937.59 315.51 937.046 303.825 Z"/>

  <!-- Path 2 -->
  <path fill="rgb(19,53,84)"
        d="M596.698 134.434
           C668.5 131.384 742.301 145.61 804.611 181.118
           C815.137 187.116 826.732 194.031 835.567 201.63
           C822.232 211.274 809.956 222.406 796.993 232.491
           C770.62 253.008 744.336 273.535 718.414 294.627
           C679.046 277.04 635.896 269.609 592.912 273.013
           C527.173 278.073 463.852 307.53 421.029 358.079
           C373.049 414.716 356.864 479.771 362.585 552.772
           C365.121 582.207 374.999 619.555 388.418 645.763
           C333.747 649.438 276.212 639.606 236.058 607.418
           C219.913 594.856 221.196 572.202 219.784 553.661
           C209.085 413.215 273.653 279.196 390.621 200.397
           C455.702 156.555 519.125 138.959 596.698 134.434 Z"/>

  <!-- Path 3 -->
  <path fill="rgb(65,170,218)"
        d="M882.053 205.504
           C887.691 225.146 891.921 247.979 896.181 268.155
           C902.253 296.918 908.65 325.358 915.283 353.999
           C919.213 370.966 921.811 388.818 926.232 405.621
           C910.774 400.994 889.607 392.265 874.358 385.969
           C803.924 561.284 666.147 688.149 499.049 727.353
           C404.855 749.453 292.121 743.703 212.573 682.824
           C181.93 659.372 158.845 626.488 150.066 588.734
           C136.953 534.633 153.491 488.849 181.635 443.115
           C164.669 510.922 167.65 550.561 184.98 584.693
           C205.752 625.405 243.626 651.944 286.331 665.283
           C369.7 691.325 465.076 672.551 541.127 632.76
           C655.826 572.747 732.444 474.91 771.611 353.143
           C752.621 348.752 731.999 345.086 713.632 340.6
           C739.678 317.706 789.126 277.875 814.004 258.152
           L854.829 225.76
           C862.935 219.34 873.276 210.361 882.053 205.504 Z"/>

  <!-- Path 4 -->
  <path fill="rgb(19,53,84)"
        d="M606.934 339.37
           C627.588 340.421 642.809 352.75 644.728 373.977
           C645.77 384.711 642.333 395.398 635.229 403.511
           C619.18 422.031 598.097 420.086 580.782 404.828
           C566.369 413.006 550.143 419.303 535.395 426.951
           C519.525 442.102 568.225 471.029 580.329 477.807
           C603.28 456.525 639.255 467.95 643.353 499.136
           C644.743 509.335 641.915 519.659 635.521 527.726
           C610.71 541.815 588.1 537.506 578.481 529.762
           C564.808 536.839 531.641 554.466 518.56 558.949
           C518.778 583.538 510.274 597.893 485.275 602.951
           C462.977 598.433 448.58 586.29 446.043 577.215
           C443.251 567.321 444.508 556.723 449.536 547.756
           C470.874 530.922 496.649 532.635 508.815 539.477
           C548.107 519.777 569.996 500.947 510.45 466.529
           C489.675 486.229 453.608 481.496 446.148 451.576
           C443.403 440.975 445.14 429.713 450.953 420.433
           C465.966 396.365 489.422 400.848 509.928 414
           C568.719 386.732 571.004 360.25 606.934 339.37 Z"/>
</svg>

